<svg xmlns="http://www.w3.org/2000/svg" width="1280" height="720" viewBox="0 0 1280 720" version="1.1"><path d="M 19 355 C 19 668, 19 668, 343.500 668 C 668 668, 668 668, 668 570.500 C 668 473, 668 473, 659 473 C 650 473, 650 473, 650 561 C 650 649, 650 649, 343.500 649 C 37 649, 37 649, 37 354.500 C 37 60, 37 60, 343.500 60 C 650 60, 650 60, 650 148 C 650 236, 650 236, 659 236 C 668 236, 668 236, 668 139 C 668 42, 668 42, 343.500 42 C 19 42, 19 42, 19 355" stroke="none" fill="#4f46e5" fill-rule="evenodd"/><path d="M 499.994 261.934 C 489.840 265.023, 484 272.532, 484 282.500 C 484 294.677, 492.745 303.192, 505.191 303.132 C 529.191 303.017, 533.861 269.381, 510.826 262.541 C 505.174 260.862, 503.775 260.784, 499.994 261.934 M 656.244 277.744 C 647.989 278.081, 647.989 278.081, 648.244 361.791 C 648.500 445.500, 648.500 445.500, 698.500 445.500 C 748.500 445.500, 748.500 445.500, 748.774 428.250 C 749.047 411, 749.047 411, 718.024 411 C 687 411, 687 411, 687 344 C 687 277, 687 277, 675.750 277.204 C 669.563 277.315, 660.785 277.559, 656.244 277.744 M 232.244 361.750 C 232.500 445.500, 232.500 445.500, 250.927 445.773 C 264.999 445.982, 269.544 445.746, 270.161 444.773 C 270.606 444.073, 270.976 429.663, 270.985 412.750 C 271 382, 271 382, 298.500 382 C 326 382, 326 382, 326 367 C 326 352, 326 352, 298.500 352 C 271 352, 271 352, 271 330 C 271 308, 271 308, 302.500 308 C 334 308, 334 308, 334 293 C 334 278, 334 278, 282.994 278 C 231.989 278, 231.989 278, 232.244 361.750 M 388 317.583 C 386.625 317.825, 382.800 318.501, 379.500 319.085 C 372.320 320.355, 365.335 322.583, 362.250 324.585 C 360.077 325.996, 360 326.572, 360 341.523 C 360 350.035, 360.260 357, 360.578 357 C 360.896 357, 364.384 355.471, 368.328 353.602 C 378.054 348.994, 386.894 347, 397.602 347 C 412.899 347, 418.759 351.626, 419.248 364.085 C 419.500 370.490, 419.500 370.490, 402 371.666 C 379.576 373.173, 375.262 374.244, 365.215 380.795 C 354.999 387.456, 350.612 397.014, 351.170 411.402 C 351.593 422.339, 354.357 429.181, 361.035 435.823 C 365.881 440.643, 369.016 442.493, 375.852 444.568 C 381.881 446.397, 397.176 446.380, 403.251 444.537 C 409.008 442.790, 416.013 438.120, 418.598 434.307 C 420.500 431.500, 420.500 431.500, 421 438.500 C 421.500 445.500, 421.500 445.500, 439 445.500 C 456.500 445.500, 456.500 445.500, 456.766 402.500 C 456.986 366.960, 456.766 358.207, 455.496 352.046 C 451.744 333.839, 442.920 324.472, 424.661 319.314 C 419.642 317.896, 393.293 316.652, 388 317.583 M 790.250 317.685 C 787.913 317.922, 786 318.539, 786 319.057 C 786 319.576, 784.425 320, 782.500 320 C 780.575 320, 779 320.401, 779 320.892 C 779 321.382, 777.765 322.093, 776.256 322.472 C 771.080 323.771, 771 324.071, 771 342.122 C 771 351.405, 771.166 359, 771.368 359 C 771.570 359, 774.811 357.425, 778.570 355.500 C 782.329 353.575, 786.176 352, 787.119 352 C 788.062 352, 788.986 351.543, 789.172 350.985 C 789.358 350.427, 792.560 349.686, 796.287 349.338 C 800.015 348.990, 803.301 348.321, 803.591 347.852 C 804.282 346.734, 813.725 346.746, 814.417 347.865 C 814.711 348.341, 816.710 348.966, 818.860 349.254 C 824.596 350.024, 829 354.302, 829 359.106 C 829 361.183, 829.450 363.160, 830 363.500 C 830.550 363.840, 831 365.441, 831 367.059 C 831 370, 831 370, 816 370 C 806.667 370, 801 370.378, 801 371 C 801 371.550, 799.227 372, 797.059 372 C 794.891 372, 792.840 372.450, 792.500 373 C 792.160 373.550, 790.787 374, 789.448 374 C 786.644 374, 779 377.099, 779 378.236 C 779 378.656, 778.377 379, 777.615 379 C 775.357 379, 764 391.793, 764 394.337 C 764 395.581, 763.489 397.111, 762.865 397.735 C 761.421 399.179, 761.385 419.944, 762.822 422.595 C 763.389 423.643, 764.130 425.175, 764.466 426 C 767.172 432.629, 777.077 442.736, 781.721 443.607 C 783.537 443.948, 785.269 444.626, 785.570 445.113 C 785.871 445.601, 787.865 446, 790 446 C 792.135 446, 794.160 446.450, 794.500 447 C 794.840 447.550, 797.990 448, 801.500 448 C 805.010 448, 808.160 447.550, 808.500 447 C 808.840 446.450, 810.643 446, 812.506 446 C 816.828 446, 823.492 442.460, 828.092 437.719 C 830.068 435.684, 831.981 434.314, 832.342 434.676 C 832.704 435.037, 833 437.733, 833 440.667 C 833 446, 833 446, 851.068 446 C 869.136 446, 869.136 446, 868.818 396.833 C 868.571 358.616, 868.222 347.573, 867.250 347.249 C 866.563 347.021, 866 345.965, 866 344.903 C 866 343.148, 865.241 341.248, 862.842 337 C 862.376 336.175, 861.590 334.600, 861.094 333.500 C 858.995 328.838, 845.833 320, 840.991 320 C 839.988 320, 838.979 319.438, 838.750 318.750 C 838.436 317.806, 832.973 317.470, 816.417 317.378 C 804.363 317.310, 792.587 317.449, 790.250 317.685 M 960.750 317.660 C 958.688 317.914, 957 318.544, 957 319.060 C 957 319.577, 956.169 320, 955.154 320 C 954.138 320, 951.776 320.735, 949.904 321.634 C 945.869 323.571, 937 331.873, 937 333.712 C 937 334.421, 936.568 335, 936.040 335 C 935.513 335, 934.950 331.288, 934.790 326.750 C 934.500 318.500, 934.500 318.500, 915.500 318.500 C 896.500 318.500, 896.500 318.500, 896.500 382 C 896.500 445.500, 896.500 445.500, 915.750 445.772 C 935 446.043, 935 446.043, 935 406.581 C 935 381.351, 935.361 366.895, 936 366.500 C 936.550 366.160, 937 365.189, 937 364.342 C 937 362.269, 940.059 355.941, 942 354 C 945.615 350.385, 951.034 348.776, 958.223 349.182 C 965.136 349.573, 965.243 349.623, 970.099 354.714 C 975 359.851, 975 359.851, 975 402.947 C 975 446.043, 975 446.043, 994.250 445.772 C 1013.500 445.500, 1013.500 445.500, 1013.760 398.560 C 1013.930 367.941, 1013.669 351.269, 1013.010 350.610 C 1012.455 350.055, 1012 348.367, 1012 346.859 C 1012 345.351, 1011.601 343.871, 1011.113 343.570 C 1010.626 343.269, 1009.942 341.504, 1009.594 339.648 C 1009.246 337.793, 1008.070 335.468, 1006.980 334.482 C 1005.891 333.497, 1005 332.163, 1005 331.519 C 1005 329.420, 998.424 324.089, 993.750 322.399 C 992.788 322.051, 992 321.369, 992 320.883 C 992 320.398, 990.965 320, 989.700 320 C 988.435 320, 986.951 319.551, 986.403 319.003 C 985.304 317.904, 966.696 316.931, 960.750 317.660 M 1084.500 317.676 C 1082.300 317.928, 1080.072 318.554, 1079.550 319.067 C 1079.027 319.580, 1077.565 320, 1076.300 320 C 1075.035 320, 1074 320.450, 1074 321 C 1074 321.550, 1073.506 322, 1072.901 322 C 1070.849 322, 1064.506 325.400, 1063.193 327.204 C 1062.475 328.192, 1061.337 329, 1060.664 329 C 1059.107 329, 1047 341.162, 1047 342.727 C 1047 343.373, 1046.413 344.260, 1045.696 344.700 C 1044.529 345.416, 1043.125 348.113, 1039.816 356 C 1039.239 357.375, 1038.354 359.306, 1037.849 360.292 C 1037.344 361.277, 1036.686 365.777, 1036.387 370.292 C 1036.088 374.806, 1035.352 379.512, 1034.752 380.750 C 1033.963 382.379, 1033.967 383.621, 1034.766 385.250 C 1035.373 386.488, 1036.051 391.229, 1036.272 395.787 C 1036.493 400.344, 1037.197 404.597, 1037.837 405.237 C 1038.477 405.877, 1039 407.435, 1039 408.700 C 1039 409.965, 1039.450 411, 1040 411 C 1040.550 411, 1041 411.494, 1041 412.099 C 1041 414.161, 1044.450 420.496, 1046.727 422.615 C 1047.977 423.778, 1049 425.149, 1049 425.662 C 1049 426.812, 1056.265 434, 1057.427 434 C 1057.891 434, 1059.222 435.021, 1060.385 436.268 C 1062.725 438.778, 1072.793 444, 1075.291 444 C 1076.166 444, 1077.160 444.450, 1077.500 445 C 1077.840 445.550, 1079.351 446, 1080.859 446 C 1082.367 446, 1084.088 446.488, 1084.684 447.084 C 1086.139 448.539, 1117.884 448.516, 1119.341 447.059 C 1119.924 446.476, 1121.633 446, 1123.141 446 C 1124.649 446, 1126.160 445.550, 1126.500 445 C 1126.840 444.450, 1127.763 444, 1128.552 444 C 1129.341 444, 1131.789 443.219, 1133.993 442.264 C 1138 440.528, 1138 440.528, 1138 424.764 C 1138 406.741, 1138.138 406.958, 1129.596 411.500 C 1127.010 412.875, 1124.055 414, 1123.030 414 C 1122.005 414, 1120.987 414.539, 1120.767 415.198 C 1120.194 416.919, 1096.577 416.966, 1094.854 415.250 C 1094.164 414.563, 1092.810 414, 1091.844 414 C 1088.128 414, 1076 399.596, 1076 395.182 C 1076 394.624, 1075.518 394.006, 1074.929 393.810 C 1073.161 393.220, 1073.584 373.027, 1075.439 369.470 C 1076.291 367.836, 1076.990 365.938, 1076.994 365.250 C 1076.997 364.563, 1077.450 364, 1078 364 C 1078.550 364, 1079 363.416, 1079 362.703 C 1079 361.082, 1086.155 354, 1087.792 354 C 1088.456 354, 1089 353.660, 1089 353.244 C 1089 352.828, 1090.463 351.816, 1092.250 350.994 C 1096.285 349.139, 1120.398 348.877, 1124.100 350.648 C 1125.420 351.279, 1128.168 352.529, 1130.208 353.425 C 1132.247 354.321, 1134.186 355.491, 1134.517 356.027 C 1134.847 356.562, 1135.766 357, 1136.559 357 C 1137.755 357, 1138 354.211, 1138 340.589 C 1138 324.178, 1138 324.178, 1133.684 322.089 C 1131.311 320.940, 1128.701 320, 1127.884 320 C 1127.068 320, 1125.860 319.460, 1125.201 318.801 C 1123.975 317.575, 1092.888 316.716, 1084.500 317.676 M 1199.500 317.624 C 1197.300 317.860, 1194.487 318.492, 1193.250 319.027 C 1192.013 319.562, 1189.987 320.420, 1188.750 320.932 C 1181.173 324.072, 1178.296 325.689, 1176.677 327.717 C 1175.675 328.973, 1174.304 330, 1173.630 330 C 1172.063 330, 1165 337.196, 1165 338.792 C 1165 339.456, 1164.614 340, 1164.142 340 C 1162.822 340, 1155 355.845, 1155 358.519 C 1155 359.819, 1154.550 361.160, 1154 361.500 C 1153.450 361.840, 1153 364.315, 1153 367 C 1153 369.685, 1152.550 372.160, 1152 372.500 C 1151.448 372.841, 1151 377.344, 1151 382.559 C 1151 388.186, 1151.404 392, 1152 392 C 1152.550 392, 1153 394.223, 1153 396.941 C 1153 399.659, 1153.411 402.136, 1153.913 402.446 C 1154.415 402.757, 1155.145 404.921, 1155.535 407.255 C 1155.925 409.590, 1157.016 412.625, 1157.959 414 C 1158.903 415.375, 1159.990 417.175, 1160.376 418 C 1162.280 422.068, 1164.246 424.690, 1169.151 429.708 C 1172.093 432.716, 1175.400 435.593, 1176.500 436.100 C 1177.600 436.607, 1180.300 438.149, 1182.500 439.528 C 1187.799 442.849, 1190.633 444, 1193.506 444 C 1194.813 444, 1196.160 444.450, 1196.500 445 C 1196.840 445.550, 1198.865 446, 1201 446 C 1203.135 446, 1205.160 446.450, 1205.500 447 C 1205.864 447.589, 1211.824 448, 1220 448 C 1228.176 448, 1234.136 447.589, 1234.500 447 C 1234.840 446.450, 1237.315 446, 1240 446 C 1242.685 446, 1245.160 445.550, 1245.500 445 C 1245.840 444.450, 1246.811 444, 1247.658 444 C 1249.555 444, 1256.051 441.013, 1257.750 439.359 C 1259.365 437.787, 1259.537 408.450, 1257.937 407.461 C 1257.352 407.100, 1256.073 407.529, 1255.093 408.416 C 1254.113 409.302, 1250.654 411.454, 1247.406 413.197 C 1241.522 416.354, 1241.441 416.367, 1226 416.433 C 1210.744 416.499, 1210.424 416.456, 1205.677 413.677 C 1199.177 409.873, 1193.068 403.592, 1192.344 399.969 C 1191.750 397, 1191.750 397, 1228.375 397 C 1265 397, 1265 397, 1265 390.500 C 1265 385.389, 1265.321 384, 1266.500 384 C 1268.558 384, 1268.705 369.485, 1266.655 368.698 C 1265.764 368.356, 1265.105 365.515, 1264.700 360.270 C 1264.150 353.137, 1262.664 348.477, 1258.873 342 C 1258.390 341.175, 1257.586 339.600, 1257.087 338.500 C 1254.398 332.582, 1237.322 320.017, 1231.950 320.004 C 1231.098 320.002, 1229.945 319.545, 1229.389 318.989 C 1228.313 317.913, 1206.212 316.904, 1199.500 317.624 M 615 319.440 C 611.975 320.082, 608.150 321.325, 606.500 322.204 C 602.118 324.536, 596.310 330.500, 593.742 335.306 C 591.500 339.500, 591.500 339.500, 591.214 330.342 C 591.021 324.187, 590.486 320.818, 589.581 320.068 C 588.677 319.317, 582.704 319.041, 571.368 319.225 C 554.500 319.500, 554.500 319.500, 554.500 382.500 C 554.500 445.500, 554.500 445.500, 571.368 445.775 C 582.959 445.963, 588.668 445.691, 589.618 444.902 C 590.746 443.966, 591 437.291, 591 408.556 C 591 369.266, 591.229 367.597, 597.662 360.082 C 604.147 352.505, 613.140 350.002, 625.750 352.262 C 630 353.024, 630 353.024, 630 336.480 C 630 324.117, 629.684 319.840, 628.750 319.554 C 625.129 318.443, 619.905 318.400, 615 319.440 M 487.689 319.644 C 487.310 320.023, 487 348.619, 487 383.190 C 487 446.046, 487 446.046, 504.750 445.773 C 522.500 445.500, 522.500 445.500, 522.500 382.500 C 522.500 319.500, 522.500 319.500, 505.439 319.227 C 496.056 319.077, 488.069 319.265, 487.689 319.644 M 1203.022 348.802 C 1198.537 351.874, 1193.062 357.904, 1192.415 360.484 C 1192.065 361.878, 1191.378 363.266, 1190.889 363.568 C 1190.400 363.871, 1190 365.441, 1190 367.059 C 1190 370, 1190 370, 1211.200 370 C 1227.689 370, 1232.133 369.733, 1231.200 368.800 C 1230.540 368.140, 1229.967 365.778, 1229.927 363.550 C 1229.887 361.322, 1228.981 358.150, 1227.915 356.500 C 1226.849 354.850, 1225.704 352.712, 1225.372 351.750 C 1225.039 350.788, 1224.199 350, 1223.506 350 C 1222.812 350, 1221.685 349.325, 1221 348.500 C 1219.181 346.308, 1206.348 346.524, 1203.022 348.802 M 397.382 395.513 C 393.228 397.358, 389.229 402.264, 388.437 406.486 C 386.461 417.016, 399.343 424.401, 410.371 419.062 C 416.300 416.192, 418.953 410.925, 419.271 401.392 C 419.500 394.500, 419.500 394.500, 410 394.314 C 403.701 394.190, 399.449 394.594, 397.382 395.513 M 817.580 394.871 C 817.284 395.350, 814.742 395.962, 811.932 396.233 C 805.329 396.867, 801.975 399.992, 801.303 406.132 C 800.319 415.135, 804.595 419, 815.537 419 C 821.537 419, 821.901 418.852, 825.384 414.997 C 828.249 411.826, 829 410.176, 829 407.056 C 829 404.890, 829.450 402.840, 830 402.500 C 830.550 402.160, 831 400.109, 831 397.941 C 831 394, 831 394, 824.559 394 C 821.016 394, 817.876 394.392, 817.580 394.871" stroke="none" fill="#1e88e5" fill-rule="evenodd"/><path d="M 37.493 354.500 C 37.493 516.750, 37.609 582.976, 37.750 501.669 C 37.891 420.362, 37.891 287.612, 37.750 206.669 C 37.609 125.726, 37.493 192.250, 37.493 354.500" stroke="none" fill="#2f74e4" fill-rule="evenodd"/></svg>